<svg width="25" height="25" viewBox="0 0 25 25" xmlns="http://www.w3.org/2000/svg">
<path d="M20.5065 3.5H4.4935C4.23001 3.5 3.97731 3.60467 3.79099 3.79099C3.60467 3.97731 3.5 4.23001 3.5 4.4935V20.5068C3.50007 20.7702 3.60477 21.0228 3.79108 21.2091C3.97739 21.3954 4.23005 21.5 4.4935 21.5H13.1143V14.5295H10.7685V11.813H13.1143V9.8095C13.1143 7.4845 14.5343 6.21875 16.6082 6.21875C17.6017 6.21875 18.4555 6.2925 18.7045 6.32575V8.7555L17.266 8.75625C16.138 8.75625 15.9198 9.29225 15.9198 10.0787V11.8132H18.6098L18.2595 14.5297H15.9198V21.5H20.5068C20.7702 21.4999 21.0228 21.3952 21.2091 21.2089C21.3954 21.0226 21.5 20.7699 21.5 20.5065V4.4935C21.5 4.23001 21.3953 3.97731 21.209 3.79099C21.0227 3.60467 20.77 3.5 20.5065 3.5Z"/>
</svg>
