<svg width="392" height="93" viewBox="0 0 392 93" fill="none" xmlns="http://www.w3.org/2000/svg">
<path d="M3.90234 15.0149L31.6633 42.7759L45.7534 20.5549L45.7734 20.5349L49.2734 15.0049L3.90234 15.0149Z" fill="url(#paint0_linear)"/>
<path d="M49.3173 60.4299L77.0883 88.1999V73.8089C77.093 73.8033 77.0956 73.7962 77.0956 73.7889C77.0956 73.7816 77.093 73.7745 77.0883 73.7689L77.0783 15.0049H49.2783L49.3083 42.7759L49.3173 60.4299Z" fill="url(#paint1_linear)"/>
<path d="M31.6631 42.776H49.3071L49.2771 15L31.6631 42.776Z" fill="url(#paint2_linear)"/>
<g style="mix-blend-mode:multiply" opacity="0.3">
<g style="mix-blend-mode:multiply" opacity="0.3">
<path d="M41.1172 42.776H49.3072L49.2772 15L41.1172 42.776Z" fill="black"/>
</g>
</g>
<g style="mix-blend-mode:screen" opacity="0.4">
<g style="mix-blend-mode:screen" opacity="0.4">
<path d="M52.1533 59.2557L74.2443 81.3457L52.1133 17.8457L52.1433 42.7667L52.1533 59.2557Z" fill="white"/>
</g>
</g>
<g style="mix-blend-mode:screen" opacity="0.4">
<g style="mix-blend-mode:screen" opacity="0.4">
<path d="M30.7695 39.4071L31.9405 17.3272L45.4065 17.2432L30.7695 39.4071Z" fill="white"/>
</g>
</g>
<g style="mix-blend-mode:multiply" opacity="0.3">
<g style="mix-blend-mode:multiply" opacity="0.3">
<path d="M49.3173 60.43L77.0883 88.2C74.9503 85.7 72.7223 83.312 70.5343 80.863C68.3263 78.455 66.0983 76.046 63.8403 73.687C61.5923 71.299 59.3273 68.9324 57.0453 66.587C54.8873 64.349 52.6893 62.151 50.5113 59.933C50.5413 56.31 50.4813 52.697 50.4713 49.074C50.4313 45.28 50.3646 41.4927 50.2713 37.712C50.1813 33.929 50.0613 30.135 49.9103 26.351L49.6193 20.68C49.5293 18.78 49.4193 16.886 49.2783 15L49.3083 42.771L49.3173 60.43Z" fill="black"/>
</g>
</g>
<g style="mix-blend-mode:multiply" opacity="0.3">
<g style="mix-blend-mode:multiply" opacity="0.3">
<path d="M3.90234 15.0146L31.6633 42.7756L45.7534 20.5546C44.6894 21.9596 43.6654 23.3846 42.6124 24.7996C41.2124 26.6766 39.8923 28.5996 38.5373 30.5206C37.2123 32.4476 35.8574 34.3446 34.5624 36.3016C33.5384 37.8476 32.5054 39.3826 31.4814 40.9286C29.5144 38.9416 27.5473 36.9546 25.5493 34.9966C23.2413 32.6886 20.8624 30.4306 18.5044 28.1716C16.1254 25.9136 13.7364 23.6856 11.2974 21.4876C10.1034 20.3736 8.84936 19.3196 7.63436 18.2256C6.40136 17.1316 5.16634 16.0576 3.90234 15.0146Z" fill="black"/>
</g>
</g>
<g style="mix-blend-mode:multiply" opacity="0.3">
<g style="mix-blend-mode:multiply" opacity="0.3">
<path d="M77.0185 74.7819C77.0485 74.4509 77.0685 74.1299 77.0885 73.8089C77.0932 73.8033 77.0958 73.7962 77.0958 73.7889C77.0958 73.7816 77.0932 73.7745 77.0885 73.7689L77.0785 15.0049H57.6475C60.8395 15.2659 64.0315 15.3859 67.2225 15.5869C70.1935 15.7069 73.1545 15.8179 76.1225 15.8979C75.9915 20.5849 75.9015 25.2719 75.8815 29.9489C75.8315 34.9369 75.8715 39.9149 75.9115 44.8939C75.9715 49.8719 76.0615 54.8599 76.2425 59.8379C76.3425 62.3269 76.4235 64.8159 76.5735 67.3149C76.7235 69.8139 76.8175 72.2929 77.0185 74.7819Z" fill="black"/>
</g>
</g>
<path d="M0.013916 18.9004L27.7749 46.6614L5.55292 60.7554L5.53293 60.7754L0.00292969 64.2754L0.013916 18.9004Z" fill="url(#paint3_linear)"/>
<path d="M45.4289 64.3173L73.2009 92.0883H58.8079C58.8024 92.0932 58.7952 92.096 58.7879 92.096C58.7805 92.096 58.7734 92.0932 58.7679 92.0883L0.00390625 92.0783V64.2783L27.7749 64.3093L45.4289 64.3173Z" fill="url(#paint4_linear)"/>
<path d="M27.7749 46.6631V64.3071L0.00390625 64.2771L27.7749 46.6631Z" fill="url(#paint5_linear)"/>
<g style="mix-blend-mode:multiply" opacity="0.3">
<g style="mix-blend-mode:multiply" opacity="0.3">
<path d="M27.7749 56.1182V64.3082L0.00390625 64.2782L27.7749 56.1182Z" fill="black"/>
</g>
</g>
<g style="mix-blend-mode:screen" opacity="0.4">
<g style="mix-blend-mode:screen" opacity="0.4">
<path d="M44.2527 67.1582L66.3437 89.2482L2.84375 67.1172L27.7648 67.1472L44.2527 67.1582Z" fill="white"/>
</g>
</g>
<g style="mix-blend-mode:screen" opacity="0.4">
<g style="mix-blend-mode:screen" opacity="0.4">
<path d="M24.4062 45.7695L2.32618 46.9405L2.24219 60.4065L24.4062 45.7695Z" fill="white"/>
</g>
</g>
<g style="mix-blend-mode:multiply" opacity="0.3">
<g style="mix-blend-mode:multiply" opacity="0.3">
<path d="M45.429 64.3174L73.201 92.0884C70.701 89.9503 68.313 87.7223 65.864 85.5343C63.455 83.3263 61.046 81.0984 58.688 78.8393C56.2993 76.5913 53.9327 74.3267 51.588 72.0454C49.35 69.8874 47.152 67.6894 44.934 65.5114C41.31 65.5414 37.697 65.4813 34.074 65.4713C30.28 65.4313 26.493 65.3647 22.713 65.2713C18.929 65.1813 15.135 65.0603 11.351 64.9103L5.681 64.6193C3.781 64.5283 1.887 64.4193 0 64.2773L27.771 64.3084L45.429 64.3174Z" fill="black"/>
</g>
</g>
<g style="mix-blend-mode:multiply" opacity="0.3">
<g style="mix-blend-mode:multiply" opacity="0.3">
<path d="M0.0136719 18.9004L27.7747 46.6614L5.55268 60.7554C6.95268 59.6914 8.38268 58.6674 9.79868 57.6134C11.6747 56.2184 13.5987 54.8934 15.5187 53.5384C17.4457 52.2144 19.3427 50.8594 21.3007 49.5644C22.8457 48.5404 24.3817 47.5064 25.9267 46.4834C23.9397 44.5154 21.9527 42.5484 19.9957 40.5514C17.6867 38.2434 15.4287 35.8644 13.1707 33.5054C10.9127 31.1274 8.6847 28.7384 6.4867 26.2994C5.3727 25.1054 4.31867 23.8504 3.22467 22.6364C2.13167 21.4004 1.05268 20.1674 0.0136719 18.9004Z" fill="black"/>
</g>
</g>
<g style="mix-blend-mode:multiply" opacity="0.3">
<g style="mix-blend-mode:multiply" opacity="0.3">
<path d="M59.7819 92.0184C59.4509 92.0494 59.1289 92.0694 58.8079 92.0894C58.8024 92.0943 58.7952 92.097 58.7879 92.097C58.7805 92.097 58.7734 92.0943 58.7679 92.0894L0.00390625 92.0794V72.6484C0.264906 75.8404 0.384907 79.0314 0.585907 82.2234C0.706907 85.1944 0.816911 88.1544 0.896911 91.1234C5.58392 90.9934 10.2709 90.9024 14.9479 90.8824C19.9369 90.8324 24.9149 90.8724 29.8929 90.9124C34.8709 90.9734 39.8589 91.0634 44.8369 91.2444C47.3259 91.3444 49.8149 91.4244 52.3149 91.5754C54.8149 91.7264 57.2929 91.8184 59.7819 92.0184Z" fill="black"/>
</g>
</g>
<path d="M106.88 55C116.64 55 120.72 47.84 120.72 40.6C120.72 33.44 116.64 26.24 106.88 26.24H94.48V27.24C97.28 27.24 98.28 28.04 98.28 29.88V51.04C98.28 53.2 97.28 53.96 94.48 53.96V55H106.88ZM100.8 29.88C100.8 28.04 101.8 27.24 104 27.24H106.88C114.28 27.24 118 33.92 118 40.6C118 47.32 114.28 53.96 106.88 53.96H104C101.8 53.96 100.8 53.2 100.8 51.04V29.88ZM128.84 25.56C127.4 25.56 126.76 26.56 126.76 27.56C126.76 28.56 127.4 29.56 128.84 29.56C130.24 29.56 130.96 28.56 130.96 27.56C130.96 26.56 130.24 25.56 128.84 25.56ZM132.68 55V54C130.6 54 130 53.64 130 52.04V35.64L124.8 37.44L124.92 38.04C127.16 38.04 127.6 38.8 127.6 39.84V52.04C127.6 53.64 126.8 54 124.96 54V55H132.68ZM137.481 49.48L139.801 55.6L141.441 54.92C141.641 54.84 141.841 54.84 142.041 54.84C143.161 54.84 144.481 55.64 146.761 55.64C150.081 55.64 153.401 54 153.401 50.44C153.401 47.24 151.241 45.64 145.761 43.96C142.121 42.84 140.121 42 140.121 40.04C140.121 37.84 141.841 36.64 144.321 36.64C148.201 36.64 151.201 40.04 152.081 41.64L152.761 41.32L150.481 35.6L149.001 36.28C148.881 36.32 148.761 36.36 148.601 36.36C147.801 36.36 146.521 35.64 144.321 35.64C140.481 35.64 138.081 37.6 138.081 40.04C138.081 42.64 139.521 44.36 145.761 46.28C149.961 47.6 151.401 48.6 151.401 50.44C151.401 53.04 149.401 54.56 146.761 54.56C142.321 54.56 139.761 51.68 137.961 49.24L137.481 49.48ZM174.961 50.28C172.521 53.24 170.681 54.04 168.281 54.04C163.801 54.04 161.401 50.52 161.401 45.44C161.401 39.84 164.241 36.68 167.401 36.68C169.761 36.68 170.561 37.6 171.361 39.04C171.881 40.04 171.961 41.24 173.401 41.24C174.361 41.24 174.961 40.6 174.961 39.68C174.961 37.2 171.361 35.64 168.441 35.64C163.401 35.64 158.761 39.84 158.761 46.24C158.761 51.44 162.681 55.64 167.561 55.64C171.561 55.64 173.761 53.24 175.561 50.64L174.961 50.28ZM189.402 35.64C183.122 35.64 180.282 40.56 180.282 45.68C180.282 50.84 183.122 55.64 189.402 55.64C195.642 55.64 198.522 50.84 198.522 45.68C198.522 40.56 195.642 35.64 189.402 35.64ZM189.402 36.6C193.882 36.6 195.882 41.04 195.882 45.68C195.882 50.32 193.882 54.68 189.402 54.68C184.882 54.68 182.882 50.32 182.882 45.68C182.882 41.04 184.882 36.6 189.402 36.6ZM210.562 55V54C208.682 54 207.882 53.4 207.882 51.64V40.4C209.842 38.64 211.842 37.44 214.442 37.44C217.122 37.44 217.882 39 217.882 41.24V51.64C217.882 53.4 217.162 54 215.242 54V55H222.962V54C221.042 54 220.282 53.4 220.282 51.64V41.36C220.282 37.8 218.482 35.68 215.202 35.68C211.922 35.68 209.642 37.68 207.882 39.16V35.64L202.842 37.2L202.962 37.84C205.042 37.84 205.482 38.32 205.482 39.96V51.64C205.482 53.4 204.842 54 202.842 54V55H210.562ZM228.923 37.24V51.12C228.923 54.2 230.563 55.64 232.843 55.64C234.963 55.64 236.643 54.64 237.963 52.2L237.483 51.84C236.483 53.04 235.163 53.92 233.923 53.92C232.283 53.92 231.323 53.16 231.323 51.68V37.24H236.723V36.08H231.323V29.48H230.483C230.283 34.16 228.643 36.2 225.882 36.44V37.24H228.923ZM251.363 55V54C248.203 54 247.523 53.24 247.523 51.72V43.84L253.203 38.64L262.283 52.12C262.443 52.44 262.563 52.72 262.563 52.92C262.563 53.84 261.083 54 258.683 54V55H269.403V54C266.603 54 266.203 53.6 265.003 51.68L255.003 37.04L263.082 29.72C264.923 28 265.963 27.24 267.683 27.24V26.24H257.923V27.24C260.763 27.24 261.763 27.96 261.763 28.76C261.763 29.16 261.523 29.52 261.203 29.88L247.523 42.24V29.84C247.523 27.72 248.363 27.24 251.363 27.24V26.24H241.203V27.24C244.403 27.24 245.003 27.72 245.003 29.92V51.68C245.003 53.24 244.323 54 241.203 54V55H251.363ZM291.363 44.96C291.363 39.04 288.083 35.64 282.803 35.64C277.283 35.64 273.683 40.04 273.683 45.6C273.683 51.64 277.443 55.64 283.003 55.64C287.523 55.64 289.883 53.52 291.643 50.92L291.083 50.44C289.083 52.96 286.683 54.24 283.563 54.24C279.723 54.24 276.243 51.92 276.243 44.96H291.363ZM276.243 43.84C276.483 39.68 279.363 36.6 282.763 36.6C286.363 36.6 288.523 38.84 288.763 43.84H276.243ZM303.523 55V54C301.443 54 300.843 53.48 300.843 51.92V41.64C302.883 39.96 305.363 37.88 306.523 37.88C307.443 37.88 307.723 38.96 309.043 38.96C310.203 38.96 311.123 38.04 311.123 37.12C311.123 36.2 310.203 35.24 309.043 35.24C306.403 35.24 303.323 38.08 300.843 40.2V35.24L295.803 37.2L296.003 37.8C298.043 37.8 298.443 38.24 298.443 39.64V51.92C298.443 53.48 297.403 54 295.803 54V55H303.523ZM332.804 53.28C332.044 54.04 331.484 54.2 330.964 54.2C330.324 54.2 330.204 53.24 330.204 52.04V40.96C330.204 37.48 327.924 35.64 324.444 35.64C319.204 35.64 315.924 37.44 315.924 39.44C315.924 40.52 316.484 41.16 317.524 41.16C318.524 41.16 318.964 40.36 319.284 39.48C320.004 37.44 321.204 36.6 324.244 36.6C326.644 36.6 327.804 38.2 327.804 40.6V43.44C319.484 44.72 315.324 47.44 315.324 51C315.324 53.6 317.084 55.64 320.964 55.64C324.204 55.64 326.124 54.48 327.804 52.92C327.804 54.32 328.164 55.64 329.964 55.64C331.524 55.64 332.324 54.8 333.164 53.68L332.804 53.28ZM327.804 51.76C326.124 53.36 324.644 54.04 321.724 54.04C319.324 54.04 317.964 52.72 317.964 50.92C317.964 47.32 322.444 45.12 327.804 44.52V51.76ZM344.044 55V54.04C342.044 54.04 341.284 53.32 341.284 51.8V40.52C343.084 38.64 344.684 37.44 347.244 37.44C349.244 37.44 350.604 38.96 350.604 40.64V51.8C350.604 53.32 349.844 54.04 347.924 54.04V55H355.644V54.04C353.884 54.04 353.004 53.32 353.004 51.8V40.32C354.724 38.68 356.644 37.36 358.804 37.36C361.204 37.36 362.404 39.04 362.404 40.68V51.8C362.404 53.32 361.564 54.04 359.724 54.04V55H367.644V54.04C365.804 54.04 364.804 53.32 364.804 51.8V40.04C364.804 37.88 363.044 35.64 360.164 35.64C357.284 35.64 354.844 37.4 353.004 39.12C352.404 36.84 350.364 35.64 348.444 35.64C345.244 35.64 342.844 37.72 341.284 39.24V35.64L336.044 37.24L336.204 37.92C338.044 37.92 338.884 38.28 338.884 40.08V51.8C338.884 53.32 338.044 54.04 336.044 54.04V55H344.044ZM389.444 53.28C388.684 54.04 388.124 54.2 387.604 54.2C386.964 54.2 386.844 53.24 386.844 52.04V40.96C386.844 37.48 384.564 35.64 381.084 35.64C375.844 35.64 372.564 37.44 372.564 39.44C372.564 40.52 373.124 41.16 374.164 41.16C375.164 41.16 375.604 40.36 375.924 39.48C376.644 37.44 377.844 36.6 380.884 36.6C383.284 36.6 384.444 38.2 384.444 40.6V43.44C376.124 44.72 371.964 47.44 371.964 51C371.964 53.6 373.724 55.64 377.604 55.64C380.844 55.64 382.764 54.48 384.444 52.92C384.444 54.32 384.804 55.64 386.604 55.64C388.164 55.64 388.964 54.8 389.804 53.68L389.444 53.28ZM384.444 51.76C382.764 53.36 381.284 54.04 378.364 54.04C375.964 54.04 374.604 52.72 374.604 50.92C374.604 47.32 379.084 45.12 384.444 44.52V51.76Z" fill="white"/>
<path d="M94.48 26.24V25.74H93.98V26.24H94.48ZM94.48 27.24H93.98V27.74H94.48V27.24ZM94.48 53.96V53.46H93.98V53.96H94.48ZM94.48 55H93.98V55.5H94.48V55ZM106.88 55.5C111.895 55.5 115.501 53.6541 117.845 50.8346C120.176 48.0292 121.22 44.3068 121.22 40.6H120.22C120.22 44.1332 119.224 47.6108 117.075 50.1954C114.939 52.7659 111.625 54.5 106.88 54.5V55.5ZM121.22 40.6C121.22 36.9322 120.176 33.2202 117.845 30.4154C115.502 27.5966 111.896 25.74 106.88 25.74V26.74C111.624 26.74 114.938 28.4834 117.075 31.0546C119.224 33.6398 120.22 37.1078 120.22 40.6H121.22ZM106.88 25.74H94.48V26.74H106.88V25.74ZM93.98 26.24V27.24H94.98V26.24H93.98ZM94.48 27.74C95.8574 27.74 96.6721 27.942 97.1387 28.2764C97.5609 28.579 97.78 29.0534 97.78 29.88H98.78C98.78 28.8666 98.4991 28.021 97.7213 27.4636C96.9879 26.938 95.9026 26.74 94.48 26.74V27.74ZM97.78 29.88V51.04H98.78V29.88H97.78ZM97.78 51.04C97.78 52.0524 97.5462 52.5909 97.1258 52.9132C96.6663 53.2655 95.8644 53.46 94.48 53.46V54.46C95.8956 54.46 96.9937 54.2745 97.7342 53.7068C98.5138 53.1091 98.78 52.1876 98.78 51.04H97.78ZM93.98 53.96V55H94.98V53.96H93.98ZM94.48 55.5H106.88V54.5H94.48V55.5ZM101.3 29.88C101.3 29.0496 101.522 28.5593 101.892 28.2568C102.284 27.9356 102.943 27.74 104 27.74V26.74C102.857 26.74 101.916 26.9443 101.258 27.4832C100.578 28.0407 100.3 28.8704 100.3 29.88H101.3ZM104 27.74H106.88V26.74H104V27.74ZM106.88 27.74C110.409 27.74 113.045 29.3243 114.813 31.7126C116.592 34.1151 117.5 37.3448 117.5 40.6H118.5C118.5 37.1751 117.548 33.7249 115.617 31.1174C113.675 28.4957 110.751 26.74 106.88 26.74V27.74ZM117.5 40.6C117.5 43.8756 116.592 47.105 114.813 49.5021C113.045 51.8848 110.41 53.46 106.88 53.46V54.46C110.75 54.46 113.675 52.7152 115.617 50.0979C117.548 47.495 118.5 44.0444 118.5 40.6H117.5ZM106.88 53.46H104V54.46H106.88V53.46ZM104 53.46C102.936 53.46 102.29 53.2717 101.905 52.9339C101.535 52.6104 101.3 52.0539 101.3 51.04H100.3C100.3 52.1861 100.565 53.0896 101.245 53.6861C101.91 54.2683 102.864 54.46 104 54.46V53.46ZM101.3 51.04V29.88H100.3V51.04H101.3ZM132.68 55V55.5H133.18V55H132.68ZM132.68 54H133.18V53.5H132.68V54ZM130 35.64H130.5V34.9378L129.836 35.1675L130 35.64ZM124.8 37.44L124.636 36.9675L124.224 37.1102L124.31 37.5381L124.8 37.44ZM124.92 38.04L124.43 38.1381L124.51 38.54H124.92V38.04ZM124.96 54V53.5H124.46V54H124.96ZM124.96 55H124.46V55.5H124.96V55ZM128.84 25.06C127.996 25.06 127.335 25.3578 126.89 25.8492C126.452 26.3313 126.26 26.9579 126.26 27.56H127.26C127.26 27.162 127.388 26.7887 127.63 26.5208C127.865 26.2622 128.244 26.06 128.84 26.06V25.06ZM126.26 27.56C126.26 28.162 126.452 28.7887 126.89 29.2708C127.335 29.7622 127.996 30.06 128.84 30.06V29.06C128.244 29.06 127.865 28.8578 127.63 28.5992C127.388 28.3313 127.26 27.9579 127.26 27.56H126.26ZM128.84 30.06C129.667 30.06 130.332 29.7608 130.788 29.2787C131.238 28.8034 131.46 28.1771 131.46 27.56H130.46C130.46 27.9429 130.322 28.3166 130.062 28.5913C129.808 28.8592 129.413 29.06 128.84 29.06V30.06ZM131.46 27.56C131.46 26.9429 131.238 26.3166 130.788 25.8413C130.332 25.3592 129.667 25.06 128.84 25.06V26.06C129.413 26.06 129.808 26.2608 130.062 26.5287C130.322 26.8034 130.46 27.1771 130.46 27.56H131.46ZM133.18 55V54H132.18V55H133.18ZM132.68 53.5C132.17 53.5 131.775 53.4776 131.467 53.4257C131.158 53.3737 130.969 53.2972 130.849 53.2118C130.648 53.07 130.5 52.8035 130.5 52.04H129.5C129.5 52.8765 129.652 53.59 130.271 54.0282C130.561 54.2328 130.912 54.3463 131.301 54.4118C131.69 54.4774 132.15 54.5 132.68 54.5V53.5ZM130.5 52.04V35.64H129.5V52.04H130.5ZM129.836 35.1675L124.636 36.9675L124.964 37.9125L130.164 36.1125L129.836 35.1675ZM124.31 37.5381L124.43 38.1381L125.41 37.9419L125.29 37.3419L124.31 37.5381ZM124.92 38.54C126.007 38.54 126.53 38.7293 126.783 38.9365C127.004 39.1181 127.1 39.3842 127.1 39.84H128.1C128.1 39.2558 127.976 38.6219 127.417 38.1635C126.89 37.7307 126.073 37.54 124.92 37.54V38.54ZM127.1 39.84V52.04H128.1V39.84H127.1ZM127.1 52.04C127.1 52.7629 126.922 53.0491 126.69 53.2055C126.399 53.4017 125.883 53.5 124.96 53.5V54.5C125.877 54.5 126.681 54.4183 127.25 54.0345C127.878 53.6109 128.1 52.9171 128.1 52.04H127.1ZM124.46 54V55H125.46V54H124.46ZM124.96 55.5H132.68V54.5H124.96V55.5ZM137.481 49.48L137.257 49.0328L136.853 49.2348L137.013 49.6572L137.481 49.48ZM139.801 55.6L139.333 55.7772L139.516 56.2594L139.992 56.0619L139.801 55.6ZM141.441 54.92L141.255 54.4557L141.249 54.4581L141.441 54.92ZM145.761 43.96L145.614 44.4379L145.614 44.438L145.761 43.96ZM152.081 41.64L151.643 41.881L151.869 42.2923L152.294 42.0924L152.081 41.64ZM152.761 41.32L152.974 41.7724L153.399 41.572L153.225 41.1349L152.761 41.32ZM150.481 35.6L150.945 35.4149L150.75 34.9259L150.272 35.1457L150.481 35.6ZM149.001 36.28L149.159 36.7543L149.185 36.7457L149.209 36.7343L149.001 36.28ZM145.761 46.28L145.911 45.803L145.908 45.8021L145.761 46.28ZM137.961 49.24L138.363 48.9432L138.113 48.6047L137.737 48.7928L137.961 49.24ZM137.013 49.6572L139.333 55.7772L140.268 55.4228L137.948 49.3028L137.013 49.6572ZM139.992 56.0619L141.632 55.3819L141.249 54.4581L139.609 55.1381L139.992 56.0619ZM141.626 55.3842C141.724 55.3453 141.828 55.34 142.041 55.34V54.34C141.853 54.34 141.558 54.3347 141.255 54.4558L141.626 55.3842ZM142.041 55.34C142.516 55.34 143.031 55.5097 143.838 55.7233C144.611 55.9283 145.559 56.14 146.761 56.14V55.14C145.682 55.14 144.83 54.9517 144.094 54.7567C143.39 54.5703 142.686 54.34 142.041 54.34V55.34ZM146.761 56.14C148.494 56.14 150.26 55.7135 151.609 54.7872C152.975 53.8485 153.901 52.401 153.901 50.44H152.901C152.901 52.039 152.166 53.1915 151.043 53.9628C149.901 54.7465 148.348 55.14 146.761 55.14V56.14ZM153.901 50.44C153.901 48.6977 153.299 47.3536 151.954 46.2442C150.647 45.167 148.655 44.3242 145.907 43.482L145.614 44.438C148.347 45.2758 150.174 46.073 151.318 47.0158C152.422 47.9264 152.901 48.9823 152.901 50.44H153.901ZM145.908 43.4821C144.078 42.9193 142.731 42.4458 141.84 41.8906C141.402 41.6174 141.1 41.34 140.908 41.0473C140.72 40.7615 140.621 40.438 140.621 40.04H139.621C139.621 40.622 139.771 41.1385 140.072 41.5965C140.369 42.0475 140.795 42.4176 141.311 42.7394C142.33 43.3742 143.803 43.8807 145.614 44.4379L145.908 43.4821ZM140.621 40.04C140.621 39.085 140.986 38.3845 141.597 37.9098C142.224 37.423 143.154 37.14 144.321 37.14V36.14C143.007 36.14 141.837 36.457 140.984 37.1202C140.115 37.7955 139.621 38.795 139.621 40.04H140.621ZM144.321 37.14C146.112 37.14 147.727 37.9261 149.018 38.9341C150.311 39.9436 151.236 41.142 151.643 41.881L152.519 41.399C152.045 40.538 151.03 39.2364 149.633 38.1459C148.235 37.0539 146.409 36.14 144.321 36.14V37.14ZM152.294 42.0924L152.974 41.7724L152.548 40.8676L151.868 41.1876L152.294 42.0924ZM153.225 41.1349L150.945 35.4149L150.016 35.7851L152.296 41.5051L153.225 41.1349ZM150.272 35.1457L148.792 35.8257L149.209 36.7343L150.689 36.0543L150.272 35.1457ZM148.843 35.8057C148.723 35.8456 148.671 35.86 148.601 35.86V36.86C148.85 36.86 149.039 36.7944 149.159 36.7543L148.843 35.8057ZM148.601 35.86C148.466 35.86 148.287 35.8288 148.026 35.7628C147.899 35.7306 147.762 35.6927 147.608 35.6502C147.456 35.6082 147.289 35.5621 147.111 35.516C146.393 35.33 145.478 35.14 144.321 35.14V36.14C145.363 36.14 146.188 36.31 146.86 36.484C147.03 36.5279 147.189 36.5718 147.342 36.6141C147.493 36.656 147.641 36.6969 147.781 36.7322C148.054 36.8012 148.335 36.86 148.601 36.86V35.86ZM144.321 35.14C140.357 35.14 137.581 37.1929 137.581 40.04H138.581C138.581 38.0071 140.604 36.14 144.321 36.14V35.14ZM137.581 40.04C137.581 41.4608 137.986 42.6873 139.252 43.7917C140.475 44.8596 142.481 45.7941 145.614 46.7579L145.908 45.8021C142.8 44.8459 140.966 43.9604 139.909 43.0383C138.895 42.1527 138.581 41.2191 138.581 40.04H137.581ZM145.611 46.757C147.71 47.4166 149.049 47.9769 149.861 48.5691C150.259 48.8592 150.513 49.1446 150.67 49.4362C150.825 49.725 150.901 50.0486 150.901 50.44H151.901C151.901 49.9114 151.796 49.42 151.55 48.9626C151.306 48.5079 150.937 48.1158 150.45 47.7609C149.493 47.0631 148.012 46.4634 145.911 45.803L145.611 46.757ZM150.901 50.44C150.901 51.6009 150.459 52.4888 149.747 53.0939C149.026 53.7067 147.988 54.06 146.761 54.06V55.06C148.173 55.06 149.456 54.6533 150.394 53.8561C151.342 53.0512 151.901 51.8791 151.901 50.44H150.901ZM146.761 54.06C142.578 54.06 140.149 51.3645 138.363 48.9432L137.558 49.5368C139.372 51.9955 142.063 55.06 146.761 55.06V54.06ZM137.737 48.7928L137.257 49.0328L137.704 49.9272L138.184 49.6872L137.737 48.7928ZM174.961 50.28L175.218 49.8513L174.849 49.6297L174.575 49.962L174.961 50.28ZM171.361 39.04L171.805 38.8092L171.798 38.7972L171.361 39.04ZM175.561 50.64L175.972 50.9246L176.276 50.4858L175.818 50.2113L175.561 50.64ZM174.575 49.962C173.378 51.4146 172.356 52.3014 171.37 52.8292C170.394 53.3517 169.419 53.54 168.281 53.54V54.54C169.543 54.54 170.689 54.3283 171.842 53.7108C172.986 53.0986 174.105 52.1054 175.347 50.598L174.575 49.962ZM168.281 53.54C166.188 53.54 164.618 52.7254 163.558 51.341C162.485 49.9398 161.901 47.909 161.901 45.44H160.901C160.901 48.051 161.517 50.3202 162.764 51.949C164.024 53.5946 165.895 54.54 168.281 54.54V53.54ZM161.901 45.44C161.901 39.9676 164.646 37.18 167.401 37.18V36.18C163.837 36.18 160.901 39.7124 160.901 45.44H161.901ZM167.401 37.18C168.516 37.18 169.196 37.3967 169.683 37.7317C170.178 38.0731 170.532 38.5768 170.924 39.2828L171.798 38.7972C171.391 38.0632 170.945 37.3869 170.25 36.9083C169.546 36.4233 168.647 36.18 167.401 36.18V37.18ZM170.918 39.2707C171.034 39.4949 171.126 39.7305 171.234 39.9943C171.336 40.2459 171.454 40.5264 171.612 40.7795C171.774 41.0387 171.988 41.2877 172.295 41.468C172.603 41.6492 172.969 41.74 173.401 41.74V40.74C173.113 40.74 172.929 40.6808 172.801 40.6057C172.672 40.5298 172.564 40.4163 172.461 40.2505C172.353 40.0786 172.264 39.8716 172.16 39.617C172.061 39.3745 171.948 39.0851 171.805 38.8093L170.918 39.2707ZM173.401 41.74C173.996 41.74 174.521 41.5392 174.898 41.1553C175.274 40.7728 175.461 40.25 175.461 39.68H174.461C174.461 40.03 174.349 40.2872 174.184 40.4547C174.021 40.6208 173.767 40.74 173.401 40.74V41.74ZM175.461 39.68C175.461 38.1713 174.368 37.0285 173.038 36.2925C171.693 35.5481 169.979 35.14 168.441 35.14V36.14C169.824 36.14 171.369 36.5118 172.554 37.1675C173.754 37.8315 174.461 38.7087 174.461 39.68H175.461ZM168.441 35.14C163.11 35.14 158.261 39.5795 158.261 46.24H159.261C159.261 40.1005 163.693 36.14 168.441 36.14V35.14ZM158.261 46.24C158.261 51.6841 162.374 56.14 167.561 56.14V55.14C162.988 55.14 159.261 51.1959 159.261 46.24H158.261ZM167.561 56.14C171.819 56.14 174.149 53.5577 175.972 50.9246L175.15 50.3554C173.373 52.9223 171.304 55.14 167.561 55.14V56.14ZM175.818 50.2113L175.218 49.8513L174.704 50.7087L175.304 51.0687L175.818 50.2113ZM189.402 35.14C186.116 35.14 183.69 36.4345 182.096 38.4278C180.515 40.4062 179.782 43.0348 179.782 45.68H180.782C180.782 43.2052 181.469 40.8138 182.877 39.0522C184.274 37.3055 186.408 36.14 189.402 36.14V35.14ZM179.782 45.68C179.782 48.3448 180.514 50.955 182.098 52.9098C183.694 54.879 186.12 56.14 189.402 56.14V55.14C186.403 55.14 184.27 54.001 182.875 52.2802C181.469 50.545 180.782 48.1752 180.782 45.68H179.782ZM189.402 56.14C192.664 56.14 195.09 54.8784 196.69 52.9104C198.278 50.9564 199.022 48.3463 199.022 45.68H198.022C198.022 48.1737 197.325 50.5436 195.914 52.2796C194.514 54.0016 192.38 55.14 189.402 55.14V56.14ZM199.022 45.68C199.022 43.0333 198.278 40.4049 196.692 38.4271C195.094 36.435 192.669 35.14 189.402 35.14V36.14C192.375 36.14 194.51 37.305 195.912 39.0529C197.325 40.8151 198.022 43.2067 198.022 45.68H199.022ZM189.402 37.1C191.445 37.1 192.916 38.0992 193.898 39.6657C194.893 41.2524 195.382 43.4214 195.382 45.68H196.382C196.382 43.2986 195.87 40.9276 194.745 39.1343C193.608 37.3208 191.839 36.1 189.402 36.1V37.1ZM195.382 45.68C195.382 47.9385 194.894 50.0864 193.9 51.6521C192.919 53.197 191.449 54.18 189.402 54.18V55.18C191.835 55.18 193.605 53.983 194.744 52.1879C195.87 50.4136 196.382 48.0615 196.382 45.68H195.382ZM189.402 54.18C187.333 54.18 185.853 53.1952 184.868 51.6512C183.87 50.0859 183.382 47.9386 183.382 45.68H182.382C182.382 48.0614 182.894 50.4141 184.025 52.1888C185.171 53.9848 186.951 55.18 189.402 55.18V54.18ZM183.382 45.68C183.382 43.4214 183.87 41.2528 184.87 39.6666C185.857 38.1009 187.337 37.1 189.402 37.1V36.1C186.947 36.1 185.167 37.3191 184.024 39.1334C182.893 40.9272 182.382 43.2986 182.382 45.68H183.382ZM210.562 55V55.5H211.062V55H210.562ZM210.562 54H211.062V53.5H210.562V54ZM207.882 40.4L207.548 40.028L207.382 40.177V40.4H207.882ZM215.242 54V53.5H214.742V54H215.242ZM215.242 55H214.742V55.5H215.242V55ZM222.962 55V55.5H223.462V55H222.962ZM222.962 54H223.462V53.5H222.962V54ZM207.882 39.16H207.382V40.2337L208.204 39.5427L207.882 39.16ZM207.882 35.64H208.382V34.9618L207.734 35.1624L207.882 35.64ZM202.842 37.2L202.694 36.7224L202.269 36.8541L202.351 37.2921L202.842 37.2ZM202.962 37.84L202.471 37.9321L202.547 38.34H202.962V37.84ZM202.842 54V53.5H202.342V54H202.842ZM202.842 55H202.342V55.5H202.842V55ZM211.062 55V54H210.062V55H211.062ZM210.562 53.5C209.651 53.5 209.135 53.3491 208.841 53.0991C208.569 52.8672 208.382 52.4564 208.382 51.64H207.382C207.382 52.5836 207.596 53.3528 208.193 53.8609C208.769 54.3509 209.594 54.5 210.562 54.5V53.5ZM208.382 51.64V40.4H207.382V51.64H208.382ZM208.216 40.772C210.136 39.0485 212.02 37.94 214.442 37.94V36.94C211.664 36.94 209.549 38.2315 207.548 40.028L208.216 40.772ZM214.442 37.94C215.683 37.94 216.373 38.2966 216.774 38.8084C217.195 39.3463 217.382 40.1585 217.382 41.24H218.382C218.382 40.0815 218.189 38.9937 217.561 38.1916C216.912 37.3634 215.881 36.94 214.442 36.94V37.94ZM217.382 41.24V51.64H218.382V41.24H217.382ZM217.382 51.64C217.382 52.4699 217.209 52.8777 216.952 53.1048C216.676 53.3476 216.177 53.5 215.242 53.5V54.5C216.227 54.5 217.048 54.3524 217.613 53.8552C218.195 53.3423 218.382 52.5701 218.382 51.64H217.382ZM214.742 54V55H215.742V54H214.742ZM215.242 55.5H222.962V54.5H215.242V55.5ZM223.462 55V54H222.462V55H223.462ZM222.962 53.5C222.028 53.5 221.515 53.3481 221.228 53.101C220.962 52.8716 220.782 52.4631 220.782 51.64H219.782C219.782 52.5769 219.983 53.3484 220.576 53.859C221.149 54.3519 221.976 54.5 222.962 54.5V53.5ZM220.782 51.64V41.36H219.782V51.64H220.782ZM220.782 41.36C220.782 39.5016 220.312 37.9486 219.347 36.8543C218.374 35.7506 216.955 35.18 215.202 35.18V36.18C216.729 36.18 217.851 36.6694 218.597 37.5157C219.352 38.3714 219.782 39.6584 219.782 41.36H220.782ZM215.202 35.18C211.713 35.18 209.298 37.3163 207.56 38.7773L208.204 39.5427C209.987 38.0437 212.132 36.18 215.202 36.18V35.18ZM208.382 39.16V35.64H207.382V39.16H208.382ZM207.734 35.1624L202.694 36.7224L202.99 37.6776L208.03 36.1176L207.734 35.1624ZM202.351 37.2921L202.471 37.9321L203.454 37.7479L203.334 37.1079L202.351 37.2921ZM202.962 38.34C204.01 38.34 204.458 38.4726 204.672 38.6607C204.861 38.8263 204.982 39.1431 204.982 39.96H205.982C205.982 39.1369 205.884 38.3937 205.332 37.9093C204.806 37.4474 203.994 37.34 202.962 37.34V38.34ZM204.982 39.96V51.64H205.982V39.96H204.982ZM204.982 51.64C204.982 52.4836 204.824 52.8865 204.577 53.1088C204.315 53.3455 203.823 53.5 202.842 53.5V54.5C203.861 54.5 204.689 54.3545 205.247 53.8512C205.821 53.3335 205.982 52.5564 205.982 51.64H204.982ZM202.342 54V55H203.342V54H202.342ZM202.842 55.5H210.562V54.5H202.842V55.5ZM228.923 37.24H229.423V36.74H228.923V37.24ZM237.962 52.2L238.402 52.4379L238.607 52.0587L238.262 51.8L237.962 52.2ZM237.482 51.84L237.783 51.44L237.402 51.155L237.098 51.5199L237.482 51.84ZM231.322 37.24V36.74H230.822V37.24H231.322ZM236.723 37.24V37.74H237.223V37.24H236.723ZM236.723 36.08H237.223V35.58H236.723V36.08ZM231.322 36.08H230.822V36.58H231.322V36.08ZM231.322 29.48H231.822V28.98H231.322V29.48ZM230.482 29.48V28.98H230.003L229.983 29.4587L230.482 29.48ZM225.883 36.44L225.839 35.9419L225.383 35.9816V36.44H225.883ZM225.883 37.24H225.383V37.74H225.883V37.24ZM228.423 37.24V51.12H229.423V37.24H228.423ZM228.423 51.12C228.423 52.7456 228.856 54.0123 229.662 54.8761C230.471 55.7435 231.596 56.14 232.842 56.14V55.14C231.809 55.14 230.974 54.8165 230.393 54.1939C229.809 53.5677 229.423 52.5744 229.423 51.12H228.423ZM232.842 56.14C233.986 56.14 235.034 55.8688 235.976 55.2537C236.913 54.6415 237.714 53.7097 238.402 52.4379L237.523 51.9621C236.891 53.1303 236.192 53.9185 235.429 54.4163C234.671 54.9112 233.819 55.14 232.842 55.14V56.14ZM238.262 51.8L237.783 51.44L237.182 52.24L237.663 52.6L238.262 51.8ZM237.098 51.5199C236.137 52.6734 234.944 53.42 233.923 53.42V54.42C235.381 54.42 236.828 53.4066 237.867 52.1601L237.098 51.5199ZM233.923 53.42C233.171 53.42 232.653 53.245 232.33 52.9727C232.02 52.712 231.822 52.3055 231.822 51.68H230.822C230.822 52.5345 231.105 53.248 231.685 53.7373C232.252 54.215 233.034 54.42 233.923 54.42V53.42ZM231.822 51.68V37.24H230.822V51.68H231.822ZM231.322 37.74H236.723V36.74H231.322V37.74ZM237.223 37.24V36.08H236.223V37.24H237.223ZM236.723 35.58H231.322V36.58H236.723V35.58ZM231.822 36.08V29.48H230.822V36.08H231.822ZM231.322 28.98H230.482V29.98H231.322V28.98ZM229.983 29.4587C229.885 31.7557 229.434 33.3264 228.732 34.3401C228.047 35.3281 227.09 35.8331 225.839 35.9419L225.926 36.9381C227.435 36.8069 228.678 36.1719 229.553 34.9099C230.411 33.6736 230.88 31.8843 230.982 29.5013L229.983 29.4587ZM225.383 36.44V37.24H226.383V36.44H225.383ZM225.883 37.74H228.923V36.74H225.883V37.74ZM251.363 55V55.5H251.863V55H251.363ZM251.363 54H251.863V53.5H251.363V54ZM247.523 43.84L247.185 43.4712L247.023 43.6199V43.84H247.523ZM253.202 38.64L253.617 38.3607L253.293 37.8793L252.865 38.2712L253.202 38.64ZM262.283 52.12L262.73 51.8964L262.715 51.8675L262.697 51.8407L262.283 52.12ZM258.682 54V53.5H258.182V54H258.682ZM258.682 55H258.182V55.5H258.682V55ZM269.402 55V55.5H269.902V55H269.402ZM269.402 54H269.902V53.5H269.402V54ZM265.003 51.68L265.426 51.415L265.421 51.4064L265.415 51.398L265.003 51.68ZM255.003 37.04L254.667 36.6694L254.344 36.9621L254.59 37.322L255.003 37.04ZM263.083 29.72L263.418 30.0906L263.424 30.0853L263.083 29.72ZM267.682 27.24V27.74H268.182V27.24H267.682ZM267.682 26.24H268.182V25.74H267.682V26.24ZM257.923 26.24V25.74H257.423V26.24H257.923ZM257.923 27.24H257.423V27.74H257.923V27.24ZM261.202 29.88L261.538 30.251L261.558 30.2326L261.576 30.2122L261.202 29.88ZM247.523 42.24H247.023V43.3656L247.858 42.611L247.523 42.24ZM251.363 27.24V27.74H251.863V27.24H251.363ZM251.363 26.24H251.863V25.74H251.363V26.24ZM241.202 26.24V25.74H240.702V26.24H241.202ZM241.202 27.24H240.702V27.74H241.202V27.24ZM241.202 54V53.5H240.702V54H241.202ZM241.202 55H240.702V55.5H241.202V55ZM251.863 55V54H250.863V55H251.863ZM251.363 53.5C249.79 53.5 248.967 53.3043 248.537 53.0151C248.172 52.77 248.023 52.4064 248.023 51.72H247.023C247.023 52.5536 247.213 53.33 247.978 53.8449C248.678 54.3157 249.775 54.5 251.363 54.5V53.5ZM248.023 51.72V43.84H247.023V51.72H248.023ZM247.86 44.2088L253.54 39.0088L252.865 38.2712L247.185 43.4712L247.86 44.2088ZM252.788 38.9193L261.868 52.3993L262.697 51.8407L253.617 38.3607L252.788 38.9193ZM261.835 52.3436C261.913 52.499 261.973 52.6296 262.014 52.7387C262.034 52.7924 262.046 52.8352 262.054 52.8684C262.058 52.8847 262.06 52.8972 262.061 52.9063C262.062 52.9108 262.062 52.9141 262.062 52.9165C262.062 52.9176 262.062 52.9185 262.062 52.9191C262.062 52.9194 262.062 52.9196 262.062 52.9198C262.062 52.9198 262.062 52.9199 262.062 52.9199C262.062 52.92 262.062 52.92 262.062 52.92C262.062 52.9201 262.062 52.9199 262.062 52.92C262.062 52.9201 262.062 52.9199 262.062 52.92H263.062C263.062 52.7315 263.008 52.5456 262.951 52.3913C262.892 52.2304 262.812 52.061 262.73 51.8964L261.835 52.3436ZM262.062 52.92C262.062 52.9912 262.044 53.0349 261.977 53.0901C261.887 53.1637 261.714 53.2476 261.41 53.3179C260.803 53.4582 259.887 53.5 258.682 53.5V54.5C259.878 54.5 260.902 54.4618 261.635 54.2921C262.001 54.2074 262.348 54.0788 262.611 53.8637C262.896 53.6301 263.062 53.3088 263.062 52.92H262.062ZM258.182 54V55H259.182V54H258.182ZM258.682 55.5H269.402V54.5H258.682V55.5ZM269.902 55V54H268.902V55H269.902ZM269.402 53.5C267.999 53.5 267.322 53.3931 266.849 53.125C266.377 52.8577 266.039 52.3945 265.426 51.415L264.579 51.945C265.166 52.8855 265.628 53.5823 266.356 53.995C267.083 54.4069 268.007 54.5 269.402 54.5V53.5ZM265.415 51.398L255.415 36.758L254.59 37.322L264.59 51.962L265.415 51.398ZM255.338 37.4105L263.418 30.0905L262.747 29.3494L254.667 36.6694L255.338 37.4105ZM263.424 30.0853C265.261 28.3677 266.174 27.74 267.682 27.74V26.74C265.751 26.74 264.584 27.6323 262.741 29.3547L263.424 30.0853ZM268.182 27.24V26.24H267.182V27.24H268.182ZM267.682 25.74H257.923V26.74H267.682V25.74ZM257.423 26.24V27.24H258.423V26.24H257.423ZM257.923 27.74C259.313 27.74 260.189 27.9182 260.697 28.1538C261.191 28.3823 261.262 28.6181 261.262 28.76H262.262C262.262 28.1019 261.834 27.5777 261.118 27.2462C260.416 26.9218 259.372 26.74 257.923 26.74V27.74ZM261.262 28.76C261.262 28.9599 261.141 29.1968 260.829 29.5478L261.576 30.2122C261.904 29.8432 262.262 29.3601 262.262 28.76H261.262ZM260.867 29.509L247.187 41.869L247.858 42.611L261.538 30.251L260.867 29.509ZM248.023 42.24V29.84H247.023V42.24H248.023ZM248.023 29.84C248.023 28.8256 248.226 28.4036 248.592 28.1627C248.802 28.0249 249.11 27.9146 249.574 27.8421C250.037 27.7699 250.622 27.74 251.363 27.74V26.74C250.603 26.74 249.958 26.7701 249.42 26.8541C248.883 26.9379 248.418 27.0801 248.043 27.3273C247.239 27.8564 247.023 28.7344 247.023 29.84H248.023ZM251.863 27.24V26.24H250.863V27.24H251.863ZM251.363 25.74H241.202V26.74H251.363V25.74ZM240.702 26.24V27.24H241.702V26.24H240.702ZM241.202 27.74C241.995 27.74 242.602 27.7701 243.069 27.8433C243.538 27.9169 243.826 28.0282 244.011 28.1611C244.339 28.397 244.503 28.8206 244.503 29.92H245.503C245.503 28.8194 245.366 27.903 244.594 27.3489C244.229 27.0868 243.767 26.9406 243.224 26.8554C242.678 26.7699 242.01 26.74 241.202 26.74V27.74ZM244.503 29.92V51.68H245.503V29.92H244.503ZM244.503 51.68C244.503 52.3912 244.35 52.7648 243.989 53.013C243.566 53.3042 242.754 53.5 241.202 53.5V54.5C242.771 54.5 243.859 54.3158 244.556 53.837C245.315 53.3152 245.503 52.5288 245.503 51.68H244.503ZM240.702 54V55H241.702V54H240.702ZM241.202 55.5H251.363V54.5H241.202V55.5ZM291.363 44.96V45.46H291.863V44.96H291.363ZM291.643 50.92L292.057 51.2003L292.307 50.8308L291.969 50.5404L291.643 50.92ZM291.083 50.44L291.409 50.0604L291.014 49.7224L290.691 50.1292L291.083 50.44ZM276.243 44.96V44.46H275.743V44.96H276.243ZM276.243 43.84L275.744 43.8112L275.713 44.34H276.243V43.84ZM288.763 43.84V44.34H289.288L289.263 43.816L288.763 43.84ZM291.863 44.96C291.863 41.9102 291.017 39.4456 289.429 37.7393C287.837 36.0287 285.554 35.14 282.803 35.14V36.14C285.333 36.14 287.329 36.9513 288.697 38.4207C290.069 39.8944 290.863 42.0898 290.863 44.96H291.863ZM282.803 35.14C276.952 35.14 273.183 39.8226 273.183 45.6H274.183C274.183 40.2574 277.615 36.14 282.803 36.14V35.14ZM273.183 45.6C273.183 48.7238 274.157 51.3629 275.892 53.2258C277.631 55.0918 280.098 56.14 283.003 56.14V55.14C280.348 55.14 278.156 54.1882 276.624 52.5442C275.089 50.8971 274.183 48.5162 274.183 45.6H273.183ZM283.003 56.14C285.347 56.14 287.16 55.5888 288.622 54.6796C290.079 53.7739 291.155 52.5323 292.057 51.2003L291.229 50.6397C290.371 51.9077 289.388 53.0261 288.094 53.8304C286.806 54.6312 285.18 55.14 283.003 55.14V56.14ZM291.969 50.5404L291.409 50.0604L290.758 50.8196L291.318 51.2996L291.969 50.5404ZM290.691 50.1292C288.775 52.5435 286.514 53.74 283.563 53.74V54.74C286.853 54.74 289.391 53.3765 291.475 50.7508L290.691 50.1292ZM283.563 53.74C281.743 53.74 280.061 53.1925 278.829 51.8693C277.593 50.542 276.743 48.3619 276.743 44.96H275.743C275.743 48.5181 276.633 50.978 278.097 52.5507C279.565 54.1275 281.543 54.74 283.563 54.74V53.74ZM276.243 45.46H291.363V44.46H276.243V45.46ZM276.742 43.8688C276.971 39.9016 279.694 37.1 282.763 37.1V36.1C279.032 36.1 275.995 39.4584 275.744 43.8112L276.742 43.8688ZM282.763 37.1C284.453 37.1 285.74 37.6207 286.644 38.6712C287.563 39.7384 288.146 41.4216 288.264 43.864L289.263 43.816C289.14 41.2584 288.523 39.3216 287.402 38.0188C286.266 36.6993 284.673 36.1 282.763 36.1V37.1ZM288.763 43.34H276.243V44.34H288.763V43.34ZM303.523 55V55.5H304.023V55H303.523ZM303.523 54H304.023V53.5H303.523V54ZM300.843 41.64L300.526 41.254L300.343 41.404V41.64H300.843ZM300.843 40.2H300.343V41.2852L301.168 40.5801L300.843 40.2ZM300.843 35.24H301.343V34.5091L300.662 34.774L300.843 35.24ZM295.803 37.2L295.622 36.734L295.179 36.9065L295.329 37.3581L295.803 37.2ZM296.003 37.8L295.529 37.9581L295.643 38.3H296.003V37.8ZM295.803 54V53.5H295.303V54H295.803ZM295.803 55H295.303V55.5H295.803V55ZM304.023 55V54H303.023V55H304.023ZM303.523 53.5C302.489 53.5 301.978 53.3623 301.714 53.1532C301.489 52.9748 301.343 52.6568 301.343 51.92H300.343C300.343 52.7432 300.498 53.4652 301.093 53.9368C301.649 54.3777 302.478 54.5 303.523 54.5V53.5ZM301.343 51.92V41.64H300.343V51.92H301.343ZM301.161 42.026C302.187 41.1814 303.301 40.2544 304.304 39.5366C304.806 39.1779 305.266 38.8808 305.663 38.6753C306.076 38.4618 306.359 38.38 306.523 38.38V37.38C306.108 37.38 305.646 37.5582 305.204 37.7872C304.746 38.0242 304.241 38.3521 303.722 38.7234C302.685 39.4656 301.54 40.4186 300.526 41.254L301.161 42.026ZM306.523 38.38C306.776 38.38 306.928 38.5075 307.328 38.8159C307.707 39.1084 308.217 39.46 309.043 39.46V38.46C308.55 38.46 308.26 38.2716 307.939 38.0241C307.639 37.7925 307.191 37.38 306.523 37.38V38.38ZM309.043 39.46C310.44 39.46 311.623 38.3546 311.623 37.12H310.623C310.623 37.7254 309.967 38.46 309.043 38.46V39.46ZM311.623 37.12C311.623 35.8984 310.453 34.74 309.043 34.74V35.74C309.953 35.74 310.623 36.5016 310.623 37.12H311.623ZM309.043 34.74C307.562 34.74 306.024 35.5282 304.599 36.5137C303.162 37.5075 301.746 38.7711 300.519 39.8199L301.168 40.5801C302.421 39.5089 303.785 38.2925 305.168 37.3363C306.563 36.3718 307.885 35.74 309.043 35.74V34.74ZM301.343 40.2V35.24H300.343V40.2H301.343ZM300.662 34.774L295.622 36.734L295.985 37.666L301.025 35.706L300.662 34.774ZM295.329 37.3581L295.529 37.9581L296.478 37.6419L296.278 37.0419L295.329 37.3581ZM296.003 38.3C296.5 38.3 296.871 38.3272 297.15 38.3814C297.428 38.4356 297.583 38.511 297.675 38.5849C297.834 38.7125 297.943 38.9505 297.943 39.64H298.943C298.943 38.9295 298.853 38.2475 298.301 37.8051C298.039 37.594 297.711 37.4719 297.341 37.3998C296.971 37.3278 296.527 37.3 296.003 37.3V38.3ZM297.943 39.64V51.92H298.943V39.64H297.943ZM297.943 51.92C297.943 52.5764 297.734 52.9257 297.435 53.1366C297.101 53.3725 296.567 53.5 295.803 53.5V54.5C296.64 54.5 297.426 54.3675 298.012 53.9534C298.633 53.5143 298.943 52.8236 298.943 51.92H297.943ZM295.303 54V55H296.303V54H295.303ZM295.803 55.5H303.523V54.5H295.803V55.5ZM332.804 53.28L333.175 52.9455L332.823 52.5538L332.45 52.9264L332.804 53.28ZM319.284 39.48L319.754 39.6509L319.755 39.6464L319.284 39.48ZM327.804 43.44L327.88 43.9342L328.304 43.869V43.44H327.804ZM327.804 52.92H328.304V51.7734L327.464 52.5536L327.804 52.92ZM333.164 53.68L333.564 53.98L333.81 53.6511L333.535 53.3455L333.164 53.68ZM327.804 51.76L328.149 52.1221L328.304 51.9743V51.76H327.804ZM327.804 44.52H328.304V43.9609L327.748 44.0231L327.804 44.52ZM332.45 52.9264C332.1 53.2763 331.819 53.4654 331.589 53.569C331.364 53.6701 331.166 53.7 330.964 53.7V54.7C331.281 54.7 331.623 54.6499 331.999 54.481C332.369 54.3146 332.747 54.0437 333.157 53.6336L332.45 52.9264ZM330.964 53.7C330.947 53.7 330.951 53.7012 330.941 53.6905C330.916 53.6635 330.869 53.5913 330.825 53.4343C330.736 53.1172 330.704 52.6389 330.704 52.04H329.704C329.704 52.6411 329.732 53.2428 329.863 53.7057C329.928 53.9387 330.032 54.1815 330.209 54.372C330.402 54.5788 330.66 54.7 330.964 54.7V53.7ZM330.704 52.04V40.96H329.704V52.04H330.704ZM330.704 40.96C330.704 39.1053 330.092 37.6286 328.961 36.6216C327.839 35.6222 326.267 35.14 324.444 35.14V36.14C326.1 36.14 327.408 36.5778 328.296 37.3684C329.175 38.1514 329.704 39.3347 329.704 40.96H330.704ZM324.444 35.14C321.773 35.14 319.565 35.5977 318.004 36.3383C316.474 37.0648 315.424 38.1434 315.424 39.44H316.424C316.424 38.7366 317.014 37.9152 318.433 37.2417C319.823 36.5823 321.874 36.14 324.444 36.14V35.14ZM315.424 39.44C315.424 40.0614 315.585 40.6276 315.965 41.0426C316.351 41.4644 316.898 41.66 317.524 41.66V40.66C317.109 40.66 316.857 40.5356 316.703 40.3674C316.542 40.1924 316.424 39.8986 316.424 39.44H315.424ZM317.524 41.66C318.182 41.66 318.673 41.3871 319.033 40.9818C319.373 40.5978 319.589 40.1028 319.754 39.6509L318.814 39.3091C318.658 39.7372 318.494 40.0822 318.285 40.3182C318.094 40.5329 317.866 40.66 317.524 40.66V41.66ZM319.755 39.6464C320.093 38.6899 320.516 38.0871 321.152 37.703C321.806 37.3079 322.757 37.1 324.244 37.1V36.1C322.69 36.1 321.521 36.3121 320.635 36.847C319.731 37.3929 319.195 38.2301 318.812 39.3136L319.755 39.6464ZM324.244 37.1C325.325 37.1 326.063 37.4552 326.541 38.0222C327.031 38.6028 327.304 39.4729 327.304 40.6H328.304C328.304 39.3271 327.997 38.1972 327.306 37.3778C326.604 36.5448 325.563 36.1 324.244 36.1V37.1ZM327.304 40.6V43.44H328.304V40.6H327.304ZM327.728 42.9458C323.538 43.5904 320.343 44.6042 318.181 45.9396C316.011 47.2805 314.824 48.9888 314.824 51H315.824C315.824 49.4512 316.717 48.0195 318.707 46.7904C320.705 45.5558 323.75 44.5696 327.88 43.9342L327.728 42.9458ZM314.824 51C314.824 52.4163 315.306 53.7207 316.354 54.6661C317.396 55.6072 318.939 56.14 320.964 56.14V55.14C319.108 55.14 317.831 54.6528 317.024 53.9239C316.221 53.1993 315.824 52.1837 315.824 51H314.824ZM320.964 56.14C324.359 56.14 326.395 54.9103 328.144 53.2864L327.464 52.5536C325.852 54.0497 324.049 55.14 320.964 55.14V56.14ZM327.304 52.92C327.304 53.643 327.393 54.4414 327.785 55.0696C328.205 55.744 328.92 56.14 329.964 56.14V55.14C329.207 55.14 328.842 54.876 328.633 54.5404C328.395 54.1586 328.304 53.597 328.304 52.92H327.304ZM329.964 56.14C330.845 56.14 331.535 55.8993 332.12 55.4896C332.69 55.091 333.14 54.5455 333.564 53.98L332.764 53.38C332.348 53.9345 331.978 54.369 331.547 54.6704C331.132 54.9608 330.643 55.14 329.964 55.14V56.14ZM333.535 53.3455L333.175 52.9455L332.432 53.6145L332.792 54.0145L333.535 53.3455ZM327.459 51.3979C326.647 52.1708 325.911 52.6958 325.046 53.0344C324.179 53.3741 323.146 53.54 321.724 53.54V54.54C323.221 54.54 324.389 54.3659 325.411 53.9656C326.436 53.5642 327.28 52.9492 328.149 52.1221L327.459 51.3979ZM321.724 53.54C320.613 53.54 319.799 53.2351 319.271 52.7773C318.749 52.3246 318.464 51.6866 318.464 50.92H317.464C317.464 51.9534 317.858 52.8754 318.616 53.5327C319.368 54.1849 320.435 54.54 321.724 54.54V53.54ZM318.464 50.92C318.464 49.3617 319.425 48.0485 321.131 47.0236C322.839 45.998 325.222 45.3121 327.859 45.0169L327.748 44.0231C325.025 44.3279 322.489 45.042 320.616 46.1664C318.743 47.2915 317.464 48.8783 317.464 50.92H318.464ZM327.304 44.52V51.76H328.304V44.52H327.304ZM344.044 55V55.5H344.544V55H344.044ZM344.044 54.04H344.544V53.54H344.044V54.04ZM341.284 40.52L340.923 40.1742L340.784 40.3192V40.52H341.284ZM347.924 54.04V53.54H347.424V54.04H347.924ZM347.924 55H347.424V55.5H347.924V55ZM355.644 55V55.5H356.144V55H355.644ZM355.644 54.04H356.144V53.54H355.644V54.04ZM353.004 40.32L352.659 39.9581L352.504 40.1059V40.32H353.004ZM359.724 54.04V53.54H359.224V54.04H359.724ZM359.724 55H359.224V55.5H359.724V55ZM367.644 55V55.5H368.144V55H367.644ZM367.644 54.04H368.144V53.54H367.644V54.04ZM353.004 39.12L352.521 39.2472L352.734 40.0572L353.346 39.4853L353.004 39.12ZM341.284 39.24H340.784V40.4253L341.633 39.5981L341.284 39.24ZM341.284 35.64H341.784V34.9645L341.138 35.1618L341.284 35.64ZM336.044 37.24L335.898 36.7618L335.45 36.8986L335.558 37.3545L336.044 37.24ZM336.204 37.92L335.718 38.0345L335.808 38.42H336.204V37.92ZM336.044 54.04V53.54H335.544V54.04H336.044ZM336.044 55H335.544V55.5H336.044V55ZM344.544 55V54.04H343.544V55H344.544ZM344.044 53.54C343.085 53.54 342.541 53.3634 342.236 53.1073C341.953 52.8693 341.784 52.4817 341.784 51.8H340.784C340.784 52.6383 340.996 53.3707 341.593 53.8727C342.168 54.3566 343.004 54.54 344.044 54.54V53.54ZM341.784 51.8V40.52H340.784V51.8H341.784ZM341.646 40.8658C343.414 39.0184 344.891 37.94 347.244 37.94V36.94C344.478 36.94 342.754 38.2616 340.923 40.1742L341.646 40.8658ZM347.244 37.94C348.968 37.94 350.104 39.2361 350.104 40.64H351.104C351.104 38.6839 349.521 36.94 347.244 36.94V37.94ZM350.104 40.64V51.8H351.104V40.64H350.104ZM350.104 51.8C350.104 52.482 349.935 52.8727 349.658 53.111C349.363 53.3649 348.84 53.54 347.924 53.54V54.54C348.929 54.54 349.746 54.3551 350.31 53.869C350.894 53.3673 351.104 52.638 351.104 51.8H350.104ZM347.424 54.04V55H348.424V54.04H347.424ZM347.924 55.5H355.644V54.5H347.924V55.5ZM356.144 55V54.04H355.144V55H356.144ZM355.644 53.54C354.819 53.54 354.298 53.3691 353.986 53.1073C353.692 52.8601 353.504 52.4618 353.504 51.8H352.504C352.504 52.6582 352.757 53.3799 353.343 53.8727C353.911 54.3509 354.709 54.54 355.644 54.54V53.54ZM353.504 51.8V40.32H352.504V51.8H353.504ZM353.349 40.6819C355.052 39.0588 356.849 37.86 358.804 37.86V36.86C356.44 36.86 354.397 38.3012 352.659 39.9581L353.349 40.6819ZM358.804 37.86C359.88 37.86 360.646 38.2329 361.144 38.7513C361.648 39.2762 361.904 39.9791 361.904 40.68H362.904C362.904 39.7409 362.561 38.7838 361.865 38.0587C361.163 37.3271 360.128 36.86 358.804 36.86V37.86ZM361.904 40.68V51.8H362.904V40.68H361.904ZM361.904 51.8C361.904 52.4683 361.723 52.8632 361.433 53.1073C361.124 53.3671 360.594 53.54 359.724 53.54V54.54C360.694 54.54 361.505 54.3529 362.076 53.8727C362.666 53.3768 362.904 52.6517 362.904 51.8H361.904ZM359.224 54.04V55H360.224V54.04H359.224ZM359.724 55.5H367.644V54.5H359.724V55.5ZM368.144 55V54.04H367.144V55H368.144ZM367.644 53.54C366.776 53.54 366.195 53.3679 365.84 53.094C365.508 52.8386 365.304 52.4409 365.304 51.8H364.304C364.304 52.6791 364.6 53.4013 365.229 53.886C365.834 54.3521 366.673 54.54 367.644 54.54V53.54ZM365.304 51.8V40.04H364.304V51.8H365.304ZM365.304 40.04C365.304 37.6214 363.338 35.14 360.164 35.14V36.14C362.751 36.14 364.304 38.1386 364.304 40.04H365.304ZM360.164 35.14C357.083 35.14 354.521 37.0181 352.663 38.7547L353.346 39.4853C355.168 37.7819 357.486 36.14 360.164 36.14V35.14ZM353.488 38.9928C352.822 36.4614 350.557 35.14 348.444 35.14V36.14C350.172 36.14 351.987 37.2186 352.521 39.2472L353.488 38.9928ZM348.444 35.14C345.026 35.14 342.498 37.3598 340.935 38.8819L341.633 39.5981C343.191 38.0802 345.462 36.14 348.444 36.14V35.14ZM341.784 39.24V35.64H340.784V39.24H341.784ZM341.138 35.1618L335.898 36.7618L336.19 37.7182L341.43 36.1182L341.138 35.1618ZM335.558 37.3545L335.718 38.0345L336.691 37.8055L336.531 37.1255L335.558 37.3545ZM336.204 38.42C337.129 38.42 337.647 38.5193 337.943 38.7316C338.19 38.9078 338.384 39.2445 338.384 40.08H339.384C339.384 39.1155 339.159 38.3722 338.525 37.9184C337.942 37.5007 337.12 37.42 336.204 37.42V38.42ZM338.384 40.08V51.8H339.384V40.08H338.384ZM338.384 51.8C338.384 52.4673 338.204 52.8569 337.901 53.1004C337.573 53.3641 337.002 53.54 336.044 53.54V54.54C337.086 54.54 337.936 54.3559 338.528 53.8796C339.145 53.3831 339.384 52.6527 339.384 51.8H338.384ZM335.544 54.04V55H336.544V54.04H335.544ZM336.044 55.5H344.044V54.5H336.044V55.5ZM389.444 53.28L389.816 52.9455L389.463 52.5538L389.091 52.9264L389.444 53.28ZM375.924 39.48L376.394 39.6509L376.396 39.6464L375.924 39.48ZM384.444 43.44L384.52 43.9342L384.944 43.869V43.44H384.444ZM384.444 52.92H384.944V51.7734L384.104 52.5536L384.444 52.92ZM389.804 53.68L390.204 53.98L390.451 53.6511L390.176 53.3455L389.804 53.68ZM384.444 51.76L384.789 52.1221L384.944 51.9743V51.76H384.444ZM384.444 44.52H384.944V43.9609L384.389 44.0231L384.444 44.52ZM389.091 52.9264C388.741 53.2763 388.46 53.4654 388.229 53.569C388.005 53.6701 387.807 53.7 387.604 53.7V54.7C387.922 54.7 388.264 54.6499 388.64 54.481C389.009 54.3146 389.388 54.0437 389.798 53.6336L389.091 52.9264ZM387.604 53.7C387.588 53.7 387.592 53.7012 387.582 53.6905C387.556 53.6635 387.51 53.5913 387.466 53.4343C387.376 53.1172 387.344 52.6389 387.344 52.04H386.344C386.344 52.6411 386.373 53.2428 386.503 53.7057C386.569 53.9387 386.672 54.1815 386.85 54.372C387.042 54.5788 387.301 54.7 387.604 54.7V53.7ZM387.344 52.04V40.96H386.344V52.04H387.344ZM387.344 40.96C387.344 39.1053 386.733 37.6286 385.602 36.6216C384.48 35.6222 382.908 35.14 381.084 35.14V36.14C382.741 36.14 384.049 36.5778 384.937 37.3684C385.816 38.1514 386.344 39.3347 386.344 40.96H387.344ZM381.084 35.14C378.414 35.14 376.206 35.5977 374.645 36.3383C373.114 37.0648 372.064 38.1434 372.064 39.44H373.064C373.064 38.7366 373.655 37.9152 375.074 37.2417C376.463 36.5823 378.515 36.14 381.084 36.14V35.14ZM372.064 39.44C372.064 40.0614 372.226 40.6276 372.606 41.0426C372.992 41.4644 373.539 41.66 374.164 41.66V40.66C373.75 40.66 373.497 40.5356 373.343 40.3674C373.183 40.1924 373.064 39.8986 373.064 39.44H372.064ZM374.164 41.66C374.822 41.66 375.314 41.3871 375.673 40.9818C376.014 40.5978 376.23 40.1028 376.394 39.6509L375.454 39.3091C375.299 39.7372 375.135 40.0822 374.925 40.3182C374.735 40.5329 374.507 40.66 374.164 40.66V41.66ZM376.396 39.6464C376.733 38.6899 377.157 38.0871 377.793 37.703C378.447 37.3079 379.398 37.1 380.884 37.1V36.1C379.331 36.1 378.162 36.3121 377.276 36.847C376.372 37.3929 375.835 38.2301 375.453 39.3136L376.396 39.6464ZM380.884 37.1C381.966 37.1 382.704 37.4552 383.182 38.0222C383.671 38.6028 383.944 39.4729 383.944 40.6H384.944C384.944 39.3271 384.637 38.1972 383.947 37.3778C383.245 36.5448 382.203 36.1 380.884 36.1V37.1ZM383.944 40.6V43.44H384.944V40.6H383.944ZM384.368 42.9458C380.178 43.5904 376.983 44.6042 374.822 45.9396C372.651 47.2805 371.464 48.9888 371.464 51H372.464C372.464 49.4512 373.358 48.0195 375.347 46.7904C377.346 45.5558 380.39 44.5696 384.52 43.9342L384.368 42.9458ZM371.464 51C371.464 52.4163 371.947 53.7207 372.994 54.6661C374.037 55.6072 375.58 56.14 377.604 56.14V55.14C375.749 55.14 374.472 54.6528 373.664 53.9239C372.862 53.1993 372.464 52.1837 372.464 51H371.464ZM377.604 56.14C381 56.14 383.036 54.9103 384.785 53.2864L384.104 52.5536C382.493 54.0497 380.689 55.14 377.604 55.14V56.14ZM383.944 52.92C383.944 53.643 384.033 54.4414 384.425 55.0696C384.846 55.744 385.561 56.14 386.604 56.14V55.14C385.848 55.14 385.483 54.876 385.274 54.5404C385.035 54.1586 384.944 53.597 384.944 52.92H383.944ZM386.604 56.14C387.486 56.14 388.176 55.8993 388.761 55.4896C389.331 55.091 389.78 54.5455 390.204 53.98L389.404 53.38C388.989 53.9345 388.618 54.369 388.188 54.6704C387.773 54.9608 387.283 55.14 386.604 55.14V56.14ZM390.176 53.3455L389.816 52.9455L389.073 53.6145L389.433 54.0145L390.176 53.3455ZM384.1 51.3979C383.288 52.1708 382.552 52.6958 381.687 53.0344C380.82 53.3741 379.787 53.54 378.364 53.54V54.54C379.862 54.54 381.029 54.3659 382.052 53.9656C383.077 53.5642 383.921 52.9492 384.789 52.1221L384.1 51.3979ZM378.364 53.54C377.254 53.54 376.44 53.2351 375.912 52.7773C375.39 52.3246 375.104 51.6866 375.104 50.92H374.104C374.104 51.9534 374.499 52.8754 375.257 53.5327C376.009 54.1849 377.075 54.54 378.364 54.54V53.54ZM375.104 50.92C375.104 49.3617 376.065 48.0485 377.772 47.0236C379.48 45.998 381.863 45.3121 384.5 45.0169L384.389 44.0231C381.666 44.3279 379.129 45.042 377.257 46.1664C375.383 47.2915 374.104 48.8783 374.104 50.92H375.104ZM383.944 44.52V51.76H384.944V44.52H383.944Z" fill="white"/>
<path d="M97.0723 78.4067C97.6826 78.4067 98.1929 78.2358 98.603 77.894C99.0181 77.5474 99.2427 77.1006 99.2769 76.5537H100.119C100.095 77.0371 99.9434 77.479 99.665 77.8794C99.3867 78.2749 99.0156 78.585 98.5518 78.8096C98.0928 79.0342 97.5996 79.1465 97.0723 79.1465C96.0322 79.1465 95.207 78.7852 94.5967 78.0625C93.9912 77.3398 93.6885 76.3682 93.6885 75.1475V74.8838C93.6885 74.1025 93.8252 73.4116 94.0986 72.811C94.3721 72.2104 94.7627 71.7466 95.2705 71.4194C95.7832 71.0923 96.3813 70.9287 97.0649 70.9287C97.9341 70.9287 98.6494 71.1875 99.2109 71.7051C99.7773 72.2227 100.08 72.9038 100.119 73.7485H99.2769C99.2378 73.1284 99.0132 72.6279 98.603 72.2471C98.1978 71.8662 97.6851 71.6758 97.0649 71.6758C96.2739 71.6758 95.6587 71.9614 95.2192 72.5327C94.7847 73.104 94.5674 73.9048 94.5674 74.9351V75.1914C94.5674 76.2021 94.7847 76.9907 95.2192 77.5571C95.6587 78.1235 96.2764 78.4067 97.0723 78.4067ZM109.129 79C109.042 78.751 108.985 78.3823 108.961 77.894C108.653 78.2944 108.26 78.6045 107.782 78.8242C107.308 79.0391 106.805 79.1465 106.273 79.1465C105.511 79.1465 104.894 78.9341 104.42 78.5093C103.951 78.0845 103.717 77.5474 103.717 76.8979C103.717 76.1265 104.037 75.5161 104.676 75.0669C105.321 74.6177 106.217 74.3931 107.364 74.3931H108.954V73.4922C108.954 72.9258 108.778 72.4814 108.426 72.1592C108.08 71.832 107.572 71.6685 106.903 71.6685C106.292 71.6685 105.787 71.8247 105.387 72.1372C104.986 72.4497 104.786 72.8257 104.786 73.2651L103.907 73.2578C103.907 72.6279 104.2 72.0835 104.786 71.6245C105.372 71.1606 106.092 70.9287 106.947 70.9287C107.831 70.9287 108.526 71.1509 109.034 71.5952C109.547 72.0347 109.811 72.6499 109.825 73.4409V77.1909C109.825 77.9575 109.906 78.5312 110.067 78.9121V79H109.129ZM106.375 78.3701C106.961 78.3701 107.484 78.2285 107.943 77.9453C108.407 77.6621 108.744 77.2837 108.954 76.8101V75.0669H107.386C106.512 75.0767 105.829 75.2378 105.335 75.5503C104.842 75.8579 104.596 76.2827 104.596 76.8247C104.596 77.269 104.759 77.6377 105.086 77.9307C105.418 78.2236 105.848 78.3701 106.375 78.3701ZM120.513 71.0752V79H119.634V71.8296H116.389L116.25 74.7959C116.191 75.8945 116.082 76.7344 115.92 77.3154C115.759 77.8916 115.52 78.3164 115.203 78.5898C114.885 78.8633 114.463 79 113.936 79H113.599V78.2236L113.87 78.209C114.373 78.1992 114.734 77.9551 114.954 77.4766C115.173 76.998 115.317 76.1436 115.386 74.9131L115.547 71.0752H120.513ZM124.638 74.9204C124.638 74.1587 124.784 73.4727 125.077 72.8623C125.375 72.252 125.792 71.7783 126.33 71.4414C126.872 71.0996 127.484 70.9287 128.168 70.9287C129.223 70.9287 130.077 71.2998 130.731 72.042C131.386 72.7793 131.713 73.7583 131.713 74.979V75.1621C131.713 75.9287 131.564 76.6196 131.266 77.2349C130.973 77.8452 130.558 78.3164 130.021 78.6484C129.484 78.9805 128.871 79.1465 128.183 79.1465C127.133 79.1465 126.278 78.7778 125.619 78.0405C124.965 77.2983 124.638 76.3169 124.638 75.0962V74.9204ZM125.517 75.1621C125.517 76.1094 125.761 76.8882 126.249 77.4985C126.742 78.104 127.387 78.4067 128.183 78.4067C128.974 78.4067 129.613 78.104 130.102 77.4985C130.595 76.8882 130.841 76.085 130.841 75.0889V74.9204C130.841 74.3149 130.729 73.7607 130.504 73.2578C130.28 72.7549 129.965 72.3667 129.56 72.0933C129.154 71.8149 128.69 71.6758 128.168 71.6758C127.387 71.6758 126.75 71.9834 126.256 72.5986C125.763 73.209 125.517 74.0098 125.517 75.001V75.1621ZM141.866 79H140.987V75.3672H136.717V79H135.838V71.0752H136.717V74.6274H140.987V71.0752H141.866V79ZM154.518 75.3672H153.302V79H152.416V71.0752H153.302V74.5908H154.503L157.411 71.0752H158.517L155.265 74.9204L158.875 79H157.718L154.518 75.3672ZM165.344 79.1465C164.67 79.1465 164.06 78.9805 163.513 78.6484C162.971 78.3164 162.549 77.855 162.246 77.2642C161.943 76.6685 161.792 76.002 161.792 75.2646V74.9497C161.792 74.188 161.938 73.502 162.231 72.8916C162.529 72.2812 162.942 71.8027 163.469 71.4561C163.997 71.1045 164.568 70.9287 165.183 70.9287C166.145 70.9287 166.907 71.2583 167.468 71.9175C168.035 72.5718 168.318 73.4678 168.318 74.6055V75.0962H162.664V75.2646C162.664 76.1631 162.92 76.9126 163.433 77.5132C163.95 78.1089 164.6 78.4067 165.381 78.4067C165.85 78.4067 166.262 78.3213 166.619 78.1504C166.98 77.9795 167.307 77.7061 167.6 77.3301L168.149 77.7476C167.505 78.6802 166.57 79.1465 165.344 79.1465ZM165.183 71.6758C164.524 71.6758 163.967 71.9175 163.513 72.4009C163.064 72.8843 162.791 73.5337 162.693 74.3491H167.446V74.2539C167.422 73.4922 167.205 72.8721 166.794 72.3936C166.384 71.915 165.847 71.6758 165.183 71.6758ZM178.646 75.1182C178.646 76.3535 178.373 77.335 177.826 78.0625C177.279 78.7852 176.547 79.1465 175.629 79.1465C174.545 79.1465 173.715 78.7656 173.139 78.0039V82.0469H172.267V71.0752H173.08L173.124 72.1958C173.695 71.3511 174.523 70.9287 175.607 70.9287C176.554 70.9287 177.296 71.2876 177.833 72.0054C178.375 72.7231 178.646 73.7192 178.646 74.9937V75.1182ZM177.768 74.9644C177.768 73.9536 177.56 73.1553 177.145 72.5693C176.73 71.9834 176.151 71.6904 175.409 71.6904C174.872 71.6904 174.411 71.8198 174.025 72.0786C173.639 72.3374 173.344 72.7134 173.139 73.2065V77.0078C173.349 77.4619 173.649 77.8086 174.04 78.0479C174.43 78.2871 174.892 78.4067 175.424 78.4067C176.161 78.4067 176.735 78.1138 177.145 77.5278C177.56 76.937 177.768 76.0825 177.768 74.9644ZM187.847 79C187.759 78.751 187.703 78.3823 187.679 77.894C187.371 78.2944 186.978 78.6045 186.5 78.8242C186.026 79.0391 185.523 79.1465 184.991 79.1465C184.229 79.1465 183.611 78.9341 183.138 78.5093C182.669 78.0845 182.435 77.5474 182.435 76.8979C182.435 76.1265 182.754 75.5161 183.394 75.0669C184.039 74.6177 184.935 74.3931 186.082 74.3931H187.671V73.4922C187.671 72.9258 187.496 72.4814 187.144 72.1592C186.797 71.832 186.29 71.6685 185.621 71.6685C185.01 71.6685 184.505 71.8247 184.104 72.1372C183.704 72.4497 183.504 72.8257 183.504 73.2651L182.625 73.2578C182.625 72.6279 182.918 72.0835 183.504 71.6245C184.09 71.1606 184.81 70.9287 185.665 70.9287C186.548 70.9287 187.244 71.1509 187.752 71.5952C188.265 72.0347 188.528 72.6499 188.543 73.4409V77.1909C188.543 77.9575 188.624 78.5312 188.785 78.9121V79H187.847ZM185.093 78.3701C185.679 78.3701 186.202 78.2285 186.661 77.9453C187.125 77.6621 187.461 77.2837 187.671 76.8101V75.0669H186.104C185.23 75.0767 184.546 75.2378 184.053 75.5503C183.56 75.8579 183.313 76.2827 183.313 76.8247C183.313 77.269 183.477 77.6377 183.804 77.9307C184.136 78.2236 184.566 78.3701 185.093 78.3701ZM197.524 77.8135L200.673 71.0752H201.757V79H200.878V72.4961L197.832 79H197.209L194.104 72.3496V79H193.232V71.0752H194.382L197.524 77.8135ZM211.566 71.0752H212.445V79H211.566V72.4888L207.289 79H206.417V71.0752H207.289V77.5938L211.566 71.0752ZM222.686 79H221.807V75.6675C221.084 75.9312 220.393 76.063 219.734 76.063C218.684 76.063 217.922 75.8335 217.449 75.3745C216.975 74.9106 216.729 74.1904 216.709 73.2139V71.0752H217.581V73.1699C217.59 73.9268 217.756 74.4736 218.079 74.8105C218.406 75.1426 218.958 75.3086 219.734 75.3086C220.442 75.2891 221.133 75.1621 221.807 74.9277V71.0752H222.686V79ZM230.348 79.1465C229.674 79.1465 229.064 78.9805 228.517 78.6484C227.975 78.3164 227.553 77.855 227.25 77.2642C226.947 76.6685 226.796 76.002 226.796 75.2646V74.9497C226.796 74.188 226.942 73.502 227.235 72.8916C227.533 72.2812 227.946 71.8027 228.473 71.4561C229 71.1045 229.572 70.9287 230.187 70.9287C231.149 70.9287 231.911 71.2583 232.472 71.9175C233.039 72.5718 233.322 73.4678 233.322 74.6055V75.0962H227.667V75.2646C227.667 76.1631 227.924 76.9126 228.437 77.5132C228.954 78.1089 229.604 78.4067 230.385 78.4067C230.854 78.4067 231.266 78.3213 231.623 78.1504C231.984 77.9795 232.311 77.7061 232.604 77.3301L233.153 77.7476C232.509 78.6802 231.574 79.1465 230.348 79.1465ZM230.187 71.6758C229.528 71.6758 228.971 71.9175 228.517 72.4009C228.068 72.8843 227.794 73.5337 227.697 74.3491H232.45V74.2539C232.426 73.4922 232.208 72.8721 231.798 72.3936C231.388 71.915 230.851 71.6758 230.187 71.6758ZM240.208 78.4067C240.818 78.4067 241.329 78.2358 241.739 77.894C242.154 77.5474 242.378 77.1006 242.413 76.5537H243.255C243.23 77.0371 243.079 77.479 242.801 77.8794C242.522 78.2749 242.151 78.585 241.688 78.8096C241.229 79.0342 240.735 79.1465 240.208 79.1465C239.168 79.1465 238.343 78.7852 237.732 78.0625C237.127 77.3398 236.824 76.3682 236.824 75.1475V74.8838C236.824 74.1025 236.961 73.4116 237.234 72.811C237.508 72.2104 237.898 71.7466 238.406 71.4194C238.919 71.0923 239.517 70.9287 240.201 70.9287C241.07 70.9287 241.785 71.1875 242.347 71.7051C242.913 72.2227 243.216 72.9038 243.255 73.7485H242.413C242.374 73.1284 242.149 72.6279 241.739 72.2471C241.333 71.8662 240.821 71.6758 240.201 71.6758C239.41 71.6758 238.794 71.9614 238.355 72.5327C237.92 73.104 237.703 73.9048 237.703 74.9351V75.1914C237.703 76.2021 237.92 76.9907 238.355 77.5571C238.794 78.1235 239.412 78.4067 240.208 78.4067ZM249.416 75.3672H248.2V79H247.314V71.0752H248.2V74.5908H249.401L252.309 71.0752H253.415L250.163 74.9204L253.774 79H252.617L249.416 75.3672ZM256.646 74.9204C256.646 74.1587 256.793 73.4727 257.086 72.8623C257.384 72.252 257.801 71.7783 258.338 71.4414C258.88 71.0996 259.493 70.9287 260.177 70.9287C261.231 70.9287 262.086 71.2998 262.74 72.042C263.395 72.7793 263.722 73.7583 263.722 74.979V75.1621C263.722 75.9287 263.573 76.6196 263.275 77.2349C262.982 77.8452 262.567 78.3164 262.03 78.6484C261.493 78.9805 260.88 79.1465 260.191 79.1465C259.142 79.1465 258.287 78.7778 257.628 78.0405C256.974 77.2983 256.646 76.3169 256.646 75.0962V74.9204ZM257.525 75.1621C257.525 76.1094 257.77 76.8882 258.258 77.4985C258.751 78.104 259.396 78.4067 260.191 78.4067C260.982 78.4067 261.622 78.104 262.11 77.4985C262.604 76.8882 262.85 76.085 262.85 75.0889V74.9204C262.85 74.3149 262.738 73.7607 262.513 73.2578C262.289 72.7549 261.974 72.3667 261.568 72.0933C261.163 71.8149 260.699 71.6758 260.177 71.6758C259.396 71.6758 258.758 71.9834 258.265 72.5986C257.772 73.209 257.525 74.0098 257.525 75.001V75.1621ZM272.996 71.0752H273.875V79H272.996V72.4888L268.718 79H267.847V71.0752H268.718V77.5938L272.996 71.0752ZM272.952 68.2188C272.952 68.7803 272.759 69.2344 272.373 69.5811C271.992 69.9277 271.479 70.1011 270.835 70.1011C270.2 70.1011 269.688 69.9302 269.297 69.5884C268.911 69.2417 268.718 68.7852 268.718 68.2188H269.465C269.465 68.624 269.585 68.9341 269.824 69.1489C270.068 69.3638 270.405 69.4712 270.835 69.4712C271.265 69.4712 271.599 69.3589 271.838 69.1343C272.083 68.9097 272.205 68.6045 272.205 68.2188H272.952ZM290.459 79H289.581V71.8296H285.311V79H284.432V71.0752H290.459V79ZM301.154 71.0752V79H300.275V71.8296H297.031L296.892 74.7959C296.833 75.8945 296.723 76.7344 296.562 77.3154C296.401 77.8916 296.162 78.3164 295.844 78.5898C295.527 78.8633 295.104 79 294.577 79H294.24V78.2236L294.511 78.209C295.014 78.1992 295.375 77.9551 295.595 77.4766C295.815 76.998 295.959 76.1436 296.027 74.9131L296.188 71.0752H301.154ZM310.97 71.0752H311.849V79H310.97V72.4888L306.693 79H305.821V71.0752H306.693V77.5938L310.97 71.0752ZM322.141 71.8223H319.255V79H318.376V71.8223H315.601V71.0752H322.141V71.8223ZM327.987 75.3672H326.771V79H325.885V71.0752H326.771V74.5908H327.973L330.88 71.0752H331.986L328.734 74.9204L332.345 79H331.188L327.987 75.3672ZM341.07 71.0752H341.949V79H341.07V72.4888L336.792 79H335.921V71.0752H336.792V77.5938L341.07 71.0752Z" fill="white"/>
<defs>
<linearGradient id="paint0_linear" x1="-1464.26" y1="676.677" x2="-1464.26" y2="643.74" gradientUnits="userSpaceOnUse">
<stop stop-color="#091A44"/>
<stop offset="0.074" stop-color="#F803CC"/>
<stop offset="0.293" stop-color="#F9029D"/>
<stop offset="0.501" stop-color="#FA0178"/>
<stop offset="0.695" stop-color="#FB005D"/>
<stop offset="0.867" stop-color="#FB004D"/>
<stop offset="1" stop-color="#0D1D55"/>
</linearGradient>
<linearGradient id="paint1_linear" x1="-1474.17" y1="673.833" x2="-1474.17" y2="741.246" gradientUnits="userSpaceOnUse">
<stop stop-color="#FBA300"/>
<stop offset="1" stop-color="#F8A700"/>
</linearGradient>
<linearGradient id="paint2_linear" x1="-1470.96" y1="681.541" x2="-1460.17" y2="678.069" gradientUnits="userSpaceOnUse">
<stop stop-color="#0D1D55"/>
<stop offset="1" stop-color="#344170"/>
</linearGradient>
<linearGradient id="paint3_linear" x1="34.1347" y1="676.701" x2="34.1347" y2="643.759" gradientUnits="userSpaceOnUse">
<stop stop-color="#FCFC53"/>
<stop offset="1" stop-color="#F8A700"/>
</linearGradient>
<linearGradient id="paint4_linear" x1="24.3053" y1="673.818" x2="24.3053" y2="741.248" gradientUnits="userSpaceOnUse">
<stop stop-color="#091A44"/>
<stop offset="0.074" stop-color="#F803CC"/>
<stop offset="0.293" stop-color="#F9029D"/>
<stop offset="0.501" stop-color="#FA0178"/>
<stop offset="0.695" stop-color="#FB005D"/>
<stop offset="0.867" stop-color="#FB004D"/>
<stop offset="1" stop-color="#14AAEB"/>
</linearGradient>
<linearGradient id="paint5_linear" x1="27.5527" y1="681.423" x2="32.5229" y2="671.582" gradientUnits="userSpaceOnUse">
<stop stop-color="#FBA301"/>
<stop offset="1" stop-color="#F9B52A"/>
</linearGradient>
</defs>
</svg>
